<svg width="38" height="38" viewBox="0 0 38 38" fill="none" xmlns="http://www.w3.org/2000/svg">
<g clip-path="url(#clip0_68_1118)">
<path d="M38 9.5L18.8575 0L0 9.5V11.875H2.375V38H7.125V16.625H30.875V38H35.625V11.875H38V9.5ZM9.5 14.25V11.875H14.25V14.25H9.5ZM16.625 14.25V11.875H21.375V14.25H16.625ZM23.75 14.25V11.875H28.5V14.25H23.75Z" fill="#00A3FF"/>
<path d="M14.25 21.375H11.875V19H9.5V26.125H16.625V19H14.25V21.375ZM14.25 30.875H11.875V28.5H9.5V35.625H16.625V28.5H14.25V30.875ZM23.75 30.875H21.375V28.5H19V35.625H26.125V28.5H23.75V30.875Z" fill="#00A3FF"/>
</g>
<defs>
<clipPath id="clip0_68_1118">
<rect width="38" height="38" fill="white"/>
</clipPath>
</defs>
</svg>
